<?xml version="1.0" encoding="UTF-8" standalone="no"?>
<!-- EPEAAPP V2 - SVG Base con secciones identificadas -->
<!-- Cada sección tiene un ID parametro-N para mapeo posterior -->

<svg
   width="60mm"
   height="60mm"
   viewBox="550 655 62 62"
   version="1.1"
   xmlns="http://www.w3.org/2000/svg">
  
  <!-- ========================================== -->
  <!-- CONFIGURACIÓN DE VISIBILIDAD -->
  <!-- Cambiar 1 a 0 para ocultar un parámetro -->
  <!-- ========================================== -->
  <style>
    :root {
      --ver-param-temperatura: 1;   /* Rojo */
      --ver-param-salinidad: 1;   /* Azul */
      --ver-param-clorofila: 1;   /* Naranja */
      --ver-param-fitoplancton: 1;   /* Verde menta */
      --ver-param-ictioplankton: 1;   /* Azul petróleo */
      --ver-param-zooplankton: 1;   /* Turquesa */
      --ver-param-absorcion-particulado: 1;   /* Marrón */
      --ver-param-bacterioplankton: 1;   /* Azul oscuro */
      --ver-param-nutrientes: 1;   /* Beige */
      --ver-param-CDOM: 1;  /* Dorado */
      --ver-param-oxigeno: 1;  /* Rojo ladrillo */
      --ver-param-carbonatos: 1;  /* Azul medio */
      --ver-parametro-pp: 1;  /* Puntos PP */
      --ver-ojo-1: 1;         /* Ojo 1 */
      --ver-ojo-2: 1;         /* Ojo 2 */
      --ver-ojo-3: 1;         /* Ojo 3 */
      --ver-pupila-1: 1;      /* Pupila 1 (dirigida=1, oportunidad=0) */
      --ver-pupila-2: 1;      /* Pupila 2 (dirigida=1, oportunidad=0) */
      --ver-pupila-3: 1;      /* Pupila 3 (dirigida=1, oportunidad=0) */
    }
    
    #param-temperatura  { opacity: var(--ver-param-temperatura); }
    #param-salinidad  { opacity: var(--ver-param-salinidad); }
    #param-clorofila  { opacity: var(--ver-param-clorofila); }
    #param-fitoplancton  { opacity: var(--ver-param-fitoplancton); }
    #param-ictioplankton  { opacity: var(--ver-param-ictioplankton); }
    #param-zooplankton  { opacity: var(--ver-param-zooplankton); }
    #param-absorcion-particulado  { opacity: var(--ver-param-absorcion-particulado); }
    #param-bacterioplankton  { opacity: var(--ver-param-bacterioplankton); }
    #param-nutrientes  { opacity: var(--ver-param-nutrientes); }
    #param-CDOM { opacity: var(--ver-param-CDOM); }
    #param-oxigeno { opacity: var(--ver-param-oxigeno); }
    #param-carbonatos { opacity: var(--ver-param-carbonatos); }
    #parametro-pp { opacity: var(--ver-parametro-pp); }
    #ojo-1        { opacity: var(--ver-ojo-1); }
    #ojo-2        { opacity: var(--ver-ojo-2); }
    #ojo-3        { opacity: var(--ver-ojo-3); }
    #pupila-1     { opacity: var(--ver-pupila-1); }
    #pupila-2     { opacity: var(--ver-pupila-2); }
    #pupila-3     { opacity: var(--ver-pupila-3); }
  </style>
  
  <defs id="defs">
    <!-- Aquí se pueden definir símbolos reutilizables -->
  </defs>

  <!-- Grupo principal del círculo -->
  <g id="circulo-epea">
    <!-- ========================================== -->
    <!-- BARCOS ( color) -->
    <!-- ========================================== --> 
     <!-- aldebarán  AD  FF9B85--> 
     <!-- Bernardo Houssay  BH FFBA08-->
     <!-- Capitan cánepa  CC  d00000-->
     <!-- Comodoro rivadavia CR  8FE388 -->
     <!-- eduardo holmberg EH  1B998B -->
     <!-- mar argentino MA 3185FC  -->
     <!-- oca balda OB  5D2E8C --> 
     <!-- puerto deseado PD  CBFF8C -->
     <!-- victor angelescu VA  FF7B9C -->
    <!-- ========================================== -->
    <!-- PARÁMETROS (zonas de color) -->
    <!-- ========================================== -->
    
    <!-- param-temperatura: Rojo (#a51c30) temperatura -->
    <path id="param-temperatura" data-color="#a51c30ff" style="fill:#a51c30;fill-opacity:1;stroke:none"
       d="m 602.85958,701.62156 c -0.47254,-0.71167 -0.41404,-0.93003 0.7724,-2.88295 6.66263,-10.9669 4.1614,-25.58944 -5.75302,-33.63293 -2.6267,-2.13104 -7.58745,-4.53652 -10.8254,-5.24928 -11.57309,-2.54757 -23.76887,3.27175 -28.91316,13.79619 l -1.32607,2.71296 -0.70882,-0.99544 -0.70882,-0.99547 0.93988,-1.71749 c 4.01966,-7.34539 10.28391,-12.36792 18.02382,-14.45109 2.05102,-0.552 3.72327,-0.72425 7.0318,-0.72425 5.04881,0 8.23698,0.70284 12.19213,2.6878 3.37045,1.69151 5.29196,3.06324 7.76304,5.54186 7.43722,7.45992 10.06657,18.48966 6.77444,28.41783 -1.07071,3.22901 -3.56507,7.87678 -4.36726,8.13756 -0.21103,0.0686 -0.61376,-0.22178 -0.89496,-0.6453 z" />

    <!-- param-salinidad: Azul (#023e8a) salinidad /0.992 -->
    <path id="param-salinidad" data-color="#023e8a" style="fill:#023e8a;fill-opacity:1;stroke:none"
       d="m 578.43135,713.52289 c -1.22413,-0.11869 -3.27443,-0.5198 -4.55621,-0.89135 -10.49517,-3.04221 -18.17391,-11.42466 -20.20898,-22.06101 -0.48493,-2.53445 -0.47516,-7.59728 0.0196,-10.18323 0.34033,-1.77885 1.09688,-4.49639 1.32704,-4.76687 0.0423,-0.0497 0.4185,0.29176 0.8359,0.75893 l 0.75891,0.84937 -0.47972,1.99046 c -0.64714,2.68523 -0.86566,6.74891 -0.50125,9.32214 1.52278,10.75314 8.87664,19.05357 19.4007,21.8979 1.88585,0.50969 2.86541,0.60153 6.41522,0.60153 5.01425,0 7.16709,-0.46988 11.25937,-2.45748 3.00429,-1.45918 5.35747,-3.1682 7.56571,-5.49471 1.59216,-1.67743 1.58438,-1.67592 2.28454,-0.44863 0.47218,0.82762 0.0329,1.63801 -1.79742,3.31616 -3.56801,3.27128 -7.88299,5.66306 -12.24235,6.78587 -1.86801,0.48115 -6.4271,1.1089 -7.46262,1.02757 -0.21601,-0.0169 -1.39433,-0.12798 -2.61845,-0.24665 z" />

    <!-- param-clorofila: Naranja (#bd6c27) clorofila -->
    <path id="param-clorofila" data-color="#bd6c27" style="fill:#bd6c27;fill-opacity:1;stroke:none"
       d="m 593.514,693.52214 c -2.45179,-1.46704 -6.75008,-3.1487 -10.76955,-4.21344 -2.05412,-0.54414 -3.7937,-1.04431 -3.86575,-1.11151 -0.55819,-0.52062 5.37782,-9.48767 6.5881,-9.95209 0.27393,-0.10512 1.49051,0.40677 2.70354,1.13749 2.18178,1.31427 7.05916,3.04205 9.82853,3.48168 1.65433,0.26263 1.7036,0.48342 0.8555,3.83395 -0.57621,2.27639 -3.1388,7.84127 -3.57965,7.77348 -0.12867,-0.0198 -0.92101,-0.44709 -1.76072,-0.94956 z" />

    <!-- param-fitoplancton: Verde menta (#a1d1be) fitoplancton -->
    <path id="param-fitoplancton" data-color="#a1d1be" style="fill:#a1d1be;fill-opacity:1;stroke:none"
       d="m 556.56756,687.6549 c -0.4916,-1.95869 0.1969,-7.94385 0.96866,-8.42084 0.28543,-0.1764 1.87579,0.42439 3.53415,1.33508 8.42192,4.62492 17.19238,1.19121 17.19238,-6.73094 v -2.47904 l 3.03049,2.90645 3.03048,2.90644 -2.24943,3.11206 c -1.23719,1.71164 -2.77622,4.14615 -3.42006,5.41001 l -1.17065,2.29796 -4.34729,-0.46556 c -3.87932,-0.41542 -12.40276,0.39579 -15.12197,1.43926 -0.67807,0.26019 -1.16265,-0.17886 -1.44676,-1.31088 z" />

    <!-- param-ictioplankton: Azul petróleo (#275d71) ictioplankton -->
    <path id="param-ictioplankton" data-color="#275d71" style="fill:#275d71;fill-opacity:1;stroke:none"
       d="m 564.92842,674.6428 c -1.03418,-0.31063 -2.55707,-1.09091 -3.38421,-1.73395 l -1.50389,-1.1692 3.51491,-3.62897 c 3.84056,-3.96515 4.48003,-3.98687 6.42874,-0.21852 2.37913,4.60074 -0.30049,8.1788 -5.05555,6.75064 z" />

    <!-- param-zooplankton: Turquesa (#429195) zooplankton -->
    <path id="param-zooplankton" data-color="#429195" style="fill:#429195;fill-opacity:1;stroke:none"
       d="m 562.42728,679.94782 c -4.21322,-2.09952 -4.88331,-2.92333 -3.90543,-4.80131 0.41656,-0.80005 0.83018,-1.54218 0.91916,-1.64915 0.089,-0.107 1.24873,0.38807 2.57728,1.10011 1.33792,0.7171 3.59119,1.29466 5.05092,1.29466 5.05513,0 6.5332,-4.562 3.22284,-9.94717 -1.39811,-2.27438 -1.0609,-3.11369 1.36342,-3.39344 1.28956,-0.1488 1.83261,0.4255 3.60133,3.80871 2.33518,4.46672 2.60987,7.28823 1.03301,10.61124 -2.2225,4.68355 -7.96319,5.91611 -13.86253,2.97635 z" />

    <!-- param-absorcion-particulado: Marrón (#ad471e) abs. particulado -->
    <path id="param-absorcion-particulado" data-color="#ad471e" style="fill:#ad471e;fill-opacity:1;stroke:none"
       d="m 594.37421,680.88178 c -1.3812,-0.52494 -3.78193,-1.61515 -5.3349,-2.42269 l -2.8236,-1.46825 3.89987,-2.56752 c 2.14493,-1.41213 5.47593,-2.95711 7.40223,-3.43328 3.34383,-0.82659 3.56229,-0.78777 4.82732,0.85751 1.58398,2.0601 3.84101,8.44712 3.20852,9.07958 -0.91069,0.91069 -8.7476,0.87891 -11.17944,-0.0453 z" />

    <!-- param-bacterioplankton: Azul oscuro (#1a2f46) bacterioplankton -->
    <path id="param-bacterioplankton" data-color="#1a2f46" style="fill:#1a2f46;fill-opacity:1;stroke:none"
       d="m 581.81082,672.93827 c -1.66704,-1.7463 -3.79622,-4.54673 -4.73149,-6.22319 -0.93525,-1.67645 -2.04825,-3.45355 -2.47328,-3.94911 -1.31707,-1.53564 -0.003,-2.09405 5.44074,-2.31273 5.24404,-0.2106 8.93865,0.50107 12.78326,2.46245 2.12749,1.08538 7.5992,5.43965 7.5992,6.04729 0,0.22773 -0.99591,0.52631 -2.21316,0.6635 -2.84919,0.32115 -7.54184,2.47626 -10.28321,4.72263 -1.18417,0.97033 -2.36411,1.76427 -2.62205,1.76427 -0.25794,0 -1.83295,-1.42881 -3.50001,-3.17511 z" />

    <!-- param-nutrientes: Beige (#e6d9ac) nutrientes-->
    <path id="param-nutrientes" data-color="#e6d9ac" style="fill:#e6d9ac;fill-opacity:1;stroke:none"
       d="m 575.30305,701.38712 c 0.66622,-5.01976 0.8397,-5.86553 1.82358,-8.89027 0.56804,-1.7463 1.21719,-3.1751 1.44256,-3.1751 2.48103,0 15.76388,5.11317 15.76388,6.06824 0,0.59256 -4.02529,4.19344 -6.09619,5.45343 -2.58953,1.57557 -6.86787,2.70275 -10.2585,2.70275 h -2.96188 z" />

    <!-- param-CDOM: Dorado (#e29f37) CDOM -->
    <path id="param-CDOM" data-color="#e29f37" style="fill:#e29f37;fill-opacity:1;stroke:none"
       d="m 600.17525,698.18754 c -0.83822,-0.8517 -2.03808,-1.90172 -2.66636,-2.33339 l -1.14231,-0.78486 1.47722,-3.00077 c 0.81245,-1.65042 1.75858,-4.29583 2.10251,-5.87867 0.59695,-2.74744 0.70845,-2.89296 2.45917,-3.2098 1.00864,-0.18251 2.38461,-0.46447 3.05768,-0.62653 l 1.22383,-0.29467 -0.30265,4.28853 c -0.31396,4.44876 -1.56239,8.54477 -3.53881,11.61063 l -1.14625,1.77805 z" />

    <!-- param-oxigeno: Rojo ladrillo (#8e2d2b) - Contiene el OJO oxigeno -->
    <path id="param-oxigeno" data-color="#8e2d2b" style="fill:#8e2d2b;fill-opacity:1;stroke:none"
       d="m 570.09602,707.56191 c -5.65256,-2.82967 -10.31134,-8.05521 -12.27812,-13.77177 -0.41431,-1.20426 -0.75332,-2.41377 -0.75332,-2.6878 0,-0.71051 4.43804,-1.98922 8.55114,-2.4638 3.17384,-0.36621 6.51108,-0.28318 10.22194,0.25424 l 1.3775,0.19949 -0.90538,2.49428 c -1.4207,3.91406 -2.16352,8.96065 -1.90865,12.96713 0.12129,1.90661 0.33163,3.75607 0.46742,4.10995 0.42304,1.10244 -1.04778,0.7629 -4.77253,-1.10172 z" />

    <!-- param-carbonatos: Azul medio (#3c6496) sistema de los carbonatos -->
    <path id="param-carbonatos" data-color="#3c6496ff" style="fill:#3c6496;fill-opacity:1;stroke:none"
       d="m 577.31393,710.15938 c -1.09643,-0.16121 -1.21084,-0.32467 -1.60663,-2.29545 -0.74178,-3.69361 -0.90508,-3.50657 3.07068,-3.51766 5.73267,-0.0161 10.79074,-2.21517 14.83651,-6.4507 l 2.0184,-2.11307 1.25965,0.94702 c 1.94879,1.46513 4.09491,3.57741 4.09491,4.03032 0,0.69567 -3.84445,4.20106 -6.39694,5.83277 -3.52962,2.25634 -7.6816,3.4775 -12.31572,3.62225 -2.0792,0.065 -4.31157,0.04 -4.96086,-0.0555 z" />

    <!-- ========================================== -->
    <!-- ESTRUCTURA (líneas negras, no cambian) -->
    <!-- ========================================== -->
    <g id="estructura" style="stroke:#000000;stroke-width:0.5;fill:none">
      <path d="m 606.6121,681.14569 c -6.60019,3.67897 -18.12502,0.0446 -25.74287,-8.11785 -1.86622,-2.00047 -3.38604,-4.16311 -4.46546,-6.35691" />
      <path d="m 581.40358,659.64219 c 7.95353,0 15.06119,3.62715 19.7576,9.31813 l 0.83775,1.12053 -0.0376,-0.008 c -8.03137,-1.17716 -17.88329,5.79788 -23.41747,17.20374 l -0.63908,1.43684 -0.67937,-0.12486 c -8.18711,-1.2854 -15.6895,-0.52441 -20.6974,1.80122 l -0.19063,0.0999 -0.0214,-0.0814 c -0.341,-1.66669 -0.51824,-3.39273 -0.51824,-5.16039 0,-14.14179 11.46304,-25.60565 25.60592,-25.60565 z" />
      <path d="m 572.70895,661.28203 c 5.79998,6.05429 6.87406,14.3695 2.40326,18.57262 -4.47085,4.20312 -12.7976,2.70211 -18.59494,-3.35218 -0.57997,-0.60497 -1.11969,-1.24351 -1.61915,-1.90944" />
      <path d="m 577.90478,688.71334 2.07299,0.38023 c 9.2397,1.94004 16.88978,6.01347 20.94711,10.61749 l 0.82434,1.03836 -0.58804,0.78622 c -4.69641,5.69071 -11.80407,9.31813 -19.7576,9.31813 -1.76953,0 -3.4961,-0.1791 -5.16094,-0.52039 l -0.41082,-0.10553 -0.043,-0.11196 c -1.80713,-5.5919 -1.33186,-13.01939 1.66482,-20.38808 z" />
      <path d="m 600.21598,669.9439 c 0.59074,0.002 1.17343,0.0448 1.74535,0.12889 l 0.0376,0.008 0.63641,0.85067 c 2.76037,4.08658 4.37417,9.01336 4.37417,14.31633 0,5.30324 -1.6138,10.22975 -4.37417,14.31661 l -0.88612,1.18497 -0.82434,-1.03863 c -4.05733,-4.60378 -11.70741,-8.67721 -20.94711,-10.61725 l -2.07299,-0.38023 0.63908,-1.43684 c 5.13675,-10.59118 14.00053,-17.36187 21.67212,-17.3326 z" />
      <path d="m 569.33366,687.9674 c 2.50796,-0.008 5.16093,0.1928 7.89175,0.62108 l 0.67937,0.12486 -0.45111,1.01447 c -2.99667,7.36869 -3.47194,14.79618 -1.66481,20.38808 l 0.043,0.11196 -2.04343,-0.52522 c -8.01797,-2.49399 -14.34696,-8.82244 -16.84148,-16.8404 l -0.60954,-2.37263 0.19063,-0.0999 c 2.75249,-1.27859 6.25914,-2.0842 10.2203,-2.33689 0.84219,-0.0537 1.70495,-0.0824 2.58535,-0.0854 z" />
      <path d="m 567.76283,663.85417 c 3.6626,3.38924 4.90048,8.06227 2.76307,10.43705 -2.13471,2.37478 -6.83382,1.55257 -10.49639,-1.83694 -0.20141,-0.18769 -0.40011,-0.38129 -0.59074,-0.58026" />
      <path d="m 599.97698,682.52856 c -0.75184,12.22135 -10.62524,21.87567 -22.05339,21.56338 -1.11704,-0.0303 -2.22604,-0.15735 -3.3162,-0.37969" />
      <!-- Círculo exterior -->
      <path d="m 552.80098,685.47931 c 0,-15.79372 12.80298,-28.59722 28.59723,-28.59722 15.79425,0 28.59722,12.8035 28.59722,28.59722 0,15.79372 -12.80297,28.59722 -28.59722,28.59722 -15.79425,0 -28.59723,-12.8035 -28.59723,-28.59722 z" />
      <path d="m 601.48069,700.43633 c 0.94523,1.03755 1.61917,2.17419 1.93067,3.25525" />
    </g>

    <!-- ========================================== -->
    <!-- PARAMETRO-PP (Producción Primaria) -->
    <!-- ========================================== -->
    <g id="parametro-pp" transform="translate(546.39821,390.47933)">
      <path id="pp-1" style="fill:#000000;stroke:#000000;stroke-width:0.11" d="m 13.583621,295.14585 c 0,-0.24496 0.198427,-0.4436 0.443609,-0.4436 0.245177,0 0.443603,0.19864 0.443603,0.4436 0,0.24497 -0.198426,0.44361 -0.443603,0.44361 -0.245182,0 -0.443604,-0.19864 -0.443609,-0.44361 z" />
      <path id="pp-2" style="fill:#000000;stroke:#000000;stroke-width:0.11" d="m 13.583621,292.64585 c 0,-0.24496 0.198427,-0.4436 0.443609,-0.4436 0.245177,0 0.443603,0.19864 0.443603,0.4436 0,0.24497 -0.198426,0.44361 -0.443603,0.44361 -0.245182,0 -0.443604,-0.19864 -0.443609,-0.44361 z" />
      <path id="pp-3" style="fill:#000000;stroke:#000000;stroke-width:0.11" d="m 11.229456,296.05834 c 0,-0.24496 0.198427,-0.4436 0.443609,-0.4436 0.245177,0 0.443603,0.19864 0.443603,0.4436 0,0.24497 -0.198426,0.44361 -0.443603,0.44361 -0.245182,0 -0.443604,-0.19864 -0.443609,-0.44361 z" />
      <path id="pp-4" style="fill:#000000;stroke:#000000;stroke-width:0.11" d="m 11.229456,293.55834 c 0,-0.24496 0.198427,-0.4436 0.443609,-0.4436 0.245177,0 0.443603,0.19864 0.443603,0.4436 0,0.24497 -0.198426,0.44361 -0.443603,0.44361 -0.245182,0 -0.443604,-0.19864 -0.443609,-0.44361 z" />
      <path id="pp-5" style="fill:#000000;stroke:#000000;stroke-width:0.11" d="m 11.229456,291.05834 c 0,-0.24496 0.198427,-0.4436 0.443609,-0.4436 0.245177,0 0.443603,0.19864 0.443603,0.4436 0,0.24497 -0.198426,0.44361 -0.443603,0.44361 -0.245182,0 -0.443604,-0.19864 -0.443609,-0.44361 z" />
      <path id="pp-6" style="fill:#000000;stroke:#000000;stroke-width:0.11" d="m 15.937786,294.23336 c 0,-0.24496 0.198427,-0.4436 0.443609,-0.4436 0.245177,0 0.443603,0.19864 0.443603,0.4436 0,0.24497 -0.198426,0.44361 -0.443603,0.44361 -0.245182,0 -0.443604,-0.19864 -0.443609,-0.44361 z" />
    </g>

    <!-- ========================================== -->
    <!-- OJOS (indican los barcos, hasta 3) -->
    <!-- Disposición: casi vertical (ojo-1 arriba, ojo-2 abajo, ojo-3 más abajo) -->
    <!-- Coordenadas basadas en SVG original 2010-10 -->
    <!-- ========================================== -->
    
    <!-- OJO-1: Arriba izquierda (verde claro) -->
    <g id="ojo-1">
      <ellipse data-color="#d6fd9a" style="fill:#d6fd9a;stroke:#000000;stroke-width:0.4" 
         cx="563" cy="694.5" rx="2.4" ry="2.4" />
      <circle id="pupila-1" style="fill:#000000" cx="563" cy="694.5" r="0.9" />
    </g>
    
    <!-- OJO-2: Abajo centro (verde claro) -->
    <g id="ojo-2">
      <ellipse data-color="#d6fd9a" style="fill:#d6fd9a;stroke:#000000;stroke-width:0.4" 
         cx="567" cy="701.5" rx="2.4" ry="2.4" />
      <circle id="pupila-2" style="fill:#000000" cx="567" cy="701.5" r="0.9" />
    </g>
    
    <!-- OJO-3: Arriba derecha (rojo) -->
    <g id="ojo-3">
      <ellipse data-color="#bf281b" style="fill:#bf281b;stroke:#000000;stroke-width:0.4" 
         cx="570" cy="694.5" rx="2.4" ry="2.4" />
      <circle id="pupila-3" style="fill:#000000" cx="570" cy="694.5" r="0.9" />
    </g>

  </g>
</svg>
